<?xml version="1.0" encoding="UTF-8" standalone="no"?>
<!-- Created with Inkscape (http://www.inkscape.org/) -->
<svg xmlns:dc="http://purl.org/dc/elements/1.1/" xmlns:cc="http://creativecommons.org/ns#" xmlns:rdf="http://www.w3.org/1999/02/22-rdf-syntax-ns#" xmlns:svg="http://www.w3.org/2000/svg" xmlns="http://www.w3.org/2000/svg" xmlns:sodipodi="http://sodipodi.sourceforge.net/DTD/sodipodi-0.dtd" xmlns:inkscape="http://www.inkscape.org/namespaces/inkscape" width="1857.8146" height="1857.8146" id="svg2" version="1.1" inkscape:version="0.48.4 r9939" sodipodi:docname="power_fist_.svg">
  <defs id="defs4"/>
  <sodipodi:namedview id="base" pagecolor="#ffffff" bordercolor="#666666" borderopacity="1.0" inkscape:pageopacity="0.0" inkscape:pageshadow="2" inkscape:zoom="0.077649918" inkscape:cx="862.74159" inkscape:cy="145.63483" inkscape:document-units="px" inkscape:current-layer="layer1" showgrid="false" fit-margin-top="0" fit-margin-left="0" fit-margin-right="0" fit-margin-bottom="0" inkscape:window-width="1280" inkscape:window-height="723" inkscape:window-x="0" inkscape:window-y="26" inkscape:window-maximized="1"/>
  <metadata id="metadata7">
    <rdf:RDF>
      <cc:Work rdf:about="">
        <dc:format>image/svg+xml</dc:format>
        <dc:type rdf:resource="http://purl.org/dc/dcmitype/StillImage"/>
        <dc:title/>
      </cc:Work>
    </rdf:RDF>
  </metadata>
  <g inkscape:label="Layer 1" inkscape:groupmode="layer" id="layer1" transform="translate(721.29196,489.01051)">
    <g id="g6844" style="fill:#d40000">
      <path sodipodi:type="arc" style="fill:#d40000;fill-opacity:1;stroke:none" id="path6770" sodipodi:cx="169.55255" sodipodi:cy="432.97632" sodipodi:rx="782.01794" sodipodi:ry="782.01794" d="m 951.5705,432.97632 c 0,431.89658 -350.12136,782.01798 -782.01795,782.01798 -431.89658,0 -782.01794,-350.1214 -782.01794,-782.01798 0,-431.8965864 350.12136,-782.01795 782.01794,-782.01795 431.89659,0 782.01795,350.1213636 782.01795,782.01795 z" transform="matrix(1.1219616,0,0,1.1219616,17.383918,-45.885974)"/>
      <path sodipodi:type="arc" style="fill:#d40000;fill-opacity:1;stroke:none" id="path6767" sodipodi:cx="169.55255" sodipodi:cy="432.97632" sodipodi:rx="782.01794" sodipodi:ry="782.01794" d="m 951.5705,432.97632 c 0,431.89658 -350.12136,782.01798 -782.01795,782.01798 -431.89658,0 -782.01794,-350.1214 -782.01794,-782.01798 0,-431.8965864 350.12136,-782.01795 782.01794,-782.01795 431.89659,0 782.01795,350.1213636 782.01795,782.01795 z" transform="matrix(1.0220815,0,0,1.0220815,34.318838,-2.6402706)"/>
      <path transform="matrix(1.0261985,0,0,1.0261985,33.620788,-4.4228399)" d="m 951.5705,432.97632 c 0,431.89658 -350.12136,782.01798 -782.01795,782.01798 -431.89658,0 -782.01794,-350.1214 -782.01794,-782.01798 0,-431.8965864 350.12136,-782.01795 782.01794,-782.01795 431.89659,0 782.01795,350.1213636 782.01795,782.01795 z" sodipodi:ry="782.01794" sodipodi:rx="782.01794" sodipodi:cy="432.97632" sodipodi:cx="169.55255" id="path6762" style="fill:#000000;fill-opacity:1;stroke:none" sodipodi:type="arc"/>
      <path id="path6792" d="m 465.53125,-220.09375 c -9.36851,-0.10857 -21.13938,5.81144 -28.6875,8.09375 -26.72,8.073 -54.2,15.31525 -81,23.03125 -24.92,7.174 -47.84,15.9015 -72,25.0625 -7.59,2.878 -23.59875,6.41075 -27.96875,13.71875 -3.89,6.493 3.00625,17.76325 5.65625,23.65625 9.06,20.073 20.27,39.22325 29.5,59.03125 10.78,23.137 26.47125,44.17275 36.03125,67.96875 3.38,8.408 7.46125,16.019 11.78125,24 1.6,2.955 3.275,8.187 6.375,9.875 4.19,2.28 13.365,-1.95225 17.625,-3.15625 15.03,-4.247 30.27,-7.4315 45,-12.6875 21.13,-7.54 44.07,-10.6595 66,-16.4375 29.48,-7.765 58.72,-17.24475 88,-24.59375 -1.37,-15.603 -13.38,-33.729 -19.75,-48 -15.56,-34.847 -29.2575,-70.58 -46.9375,-104 -5.5,-10.385 -11.05625,-20.937 -15.90625,-31.625 -2.01,-4.423 -2.62875,-10.58725 -7.71875,-12.78125 -1.82438,-0.786 -3.83804,-1.1312 -6,-1.15625 z m -251.09375,87.25 c -2.67775,0.0182 -5.39475,0.3115 -7.59375,0.3125 -14.566,0.006 -28.46075,2.59675 -42.09375,7.34375 -40.129,13.972 -77.08025,27.72975 -111.90625,53.34375 -10.047,7.39 -20.644,14.084 -30,22.375 -3.231,2.863 -8.919,6.2265 -9.375,10.9375 -0.691,7.133 4.97,17.072 8.375,23 8.727,15.194 17.63375,30.408 27.34375,45 36.584,54.976 74.03125,109.697 110.65625,165 l 1,0 c -0.988,-23.024 -5.991,-45.854 -6,-69 -0.003,-8.463 -1.126,-19.29 3.125,-27 6.077,-11.023 26.76,-14.3375 37.875,-17.8125 35.37,-11.057 72.46,-25.9955 109,-32.1875 l 3,-3 c -7.31,-19.975 -19.45375,-38.9 -28.84375,-58 -11.69,-23.774 -21.635,-48.813 -32.875,-73 -5.13,-11.05 -10.24875,-22.107 -15.71875,-33 -2.07,-4.142 -4.41625,-10.61675 -8.65625,-12.96875 -1.99,-1.102 -4.63475,-1.362 -7.3125,-1.34375 z m -243.34375,114.375 c -12.508572,0.421058 -27.629687,9.3898438 -37.25,12.875 -35.489,12.857 -68.03625,36.18225 -95.28125,62.15625 -10.33,9.849 -22.6505,21.74125 -28.6875,34.90625 -6.157,13.424 -0.36575,19.16925 5.15625,31.03125 7.837,16.839 17.799,32.15375 27.625,47.96875 37.335,60.095 84.0755,112.588 125.9375,169 12.332,16.619 24.596,33.47425 40.25,47.28125 4.371,3.855 9.33575,11.85625 15.09375,13.40625 16.852,4.535 37.33525,-2.16575 53.90625,-4.46875 32.386,-4.5 64.646,-8.9395 97,-14.8125 14.617,-2.654 29.193,-8.11525 44,-9.40625 -2.34,-10.924 -10.27525,-17.7515 -15.15625,-27.0625 C 192.1205,322.33825 180.337,300.8235 167.625,279.3125 127.353,211.1665 87.40125,143.03875 44.53125,76.46875 c -14.255,-22.137 -28.73175,-44.082 -43.34375,-66 -5.128,-7.693 -12.062,-22.59975 -20.375,-26.96875 -2.915938,-1.532563 -6.21635,-2.086646 -9.71875,-1.96875 z M 593.5625,-1.5625 c -9.07131,0.2326781 -18.10625,3.149875 -26.71875,5.46875 -20.41,5.496 -40.69,11.36425 -61,17.15625 -69.24,19.739 -138.36,40.8095 -208,58.9375 -25.11,6.536 -50.19,13.43325 -75,20.90625 -7.961,2.399 -21.64725,4.059 -27.78125,9.875 -4.231,4.013 -3.21875,10.4035 -3.21875,15.6875 0,13.093 0.7275,26.141 3.1875,39 2.546,13.313 3.721,26.703 6.375,40 0.969,4.857 0.7435,11.5425 3.4375,15.8125 3.468,5.496 16.18,8.5275 22,11.4375 28.15504,14.10494 60.53676,27.54552 90,36.375 18.13,3.69 36.61,7.5635 55,9.5625 9.53,1.035 19.39,3.4785 29,1.0625 31.14,-7.828 57.75,-31.37325 81,-52.40625 8.57,-7.753 16.46,-19.92675 27,-24.84375 -6.28,21.807 -18.43625,42.669 -26.40625,64 -3.05,8.137 -8.7725,18.085 -8.3125,27 0.61,11.878 12.49,29.181 22.75,34.625 6.08,3.226 14.27875,3.44325 20.96875,4.78125 18.87,3.773 38.95,5.69775 58,7.59375 l 0,1 c -18.21,4.486 -37.52,4.05 -56,6.125 -11.64,1.306 -22.75,5.50975 -34,7.59375 -23.4,4.33 -48.56,8.02975 -71,16.09375 -35.17,12.641 -68.13,35.5115 -99,56.1875 -75.28,50.431 -146.7885,112.32 -193.4375,191 -16.738,28.23 -34.7185,61.05 -39.5625,94 l -3,0 c -0.008,10.78 -8.60975,31.0725 -2.96875,40.8125 4.567,7.89 26.69075,9.9475 34.96875,10.1875 29.597,0.87 59.729,7.06 89,11 l -6.96875,19 -23.28125,62 -73.6875,191.00005 -23.90625,66 -10.15625,23 11.5,-54 20.90625,-93.00005 36.59375,-179 c -9.791,0 -18.427,2.805 -28,3.875 -19.158,2.15 -40.583,0.81375 -59,-4.65625 -5.832,-1.73 -17.08825,-3.5075 -21.40625,-7.9375 -4.713,-4.83 -1.59375,-22.78125 -1.59375,-29.28125 0,-31.34 6.9235,-62.54 17.3125,-92 30.108,-85.37 92.11875,-146.68125 156.59375,-207.28125 19.567,-18.397 41.73375,-33.6985 64.09375,-48.5625 11.03,-7.335 23.18,-17.39225 36,-21.15625 l 0,-1 c -25.88,4.805 -52.82,5.185 -79,8.125 -29.022,3.258 -58.004,9.0315 -87,12.6875 -15.963,2.013 -31.992,4.40525 -48,6.03125 -9.81,0.997 -22.018,1.19025 -31,5.53125 -40.433,19.54 -77.929,48.795 -115,73.625 l -29,19.34375 c -3.197,2.14 -7.815,7.23 -12,6.5 -4.537,-0.79 -9.472,-6.2925 -13,-9.0625 -9.336,-7.32 -18.487,-14.95125 -28,-22.03125 -37.078,-27.59 -72.396,-57.423 -109,-85.375 -10.51,-8.025 -20.36675,-16.772 -30.96875,-24.5 -5.212,-3.799 -8.44425,-8.382 -15.03125,-9.875 -0.826,10.109 -4.21225,19.854 -4.90625,30 -1.845,26.937 1.13025,56.47925 6.15625,82.90625 5.865,30.84 15.39175,62.74375 23.46875,93.09375 3.384,12.72 9.89125,24.52 10.28125,38 l 3,0 c 1.484,9.91 6.5915,19.4 9.4375,29 3.918,13.22 6.331,28.79 13.75,40.75 18.638,30.05 48.7925,56.55375 74.8125,80.09375 15.242,13.79 30.771,27.27375 46,41.09375 4.806,4.35 15.38075,10.035 17.46875,16.375 2.244,6.82 -1.29375,17.5275 -1.46875,24.6875 -0.638,26.05 -3.19025,53.16 -6.78125,79 -6.558,47.20002 -7.168,95.43995 -9.25,143.00005 -0.77233,32.3173 -5.86909,69.611 -7.8125,95.9687 101.796324,46.9942 215.143006,74.8125 334.625,74.8125 99.26185,0 194.28149,-19.7097 281.96875,-52.7812 -2.46737,-13.1254 -4.93159,-40.9495 -6.5625,-54 -2.44,-20.3503 -3.6225,-40.8838 -6.0625,-61.0938 -1.99,-16.46 -1.52125,-33.4062 -3.28125,-49.9062 -3.19,-29.7402 -7.8475,-59.29005 -10.6875,-89.00005 -1.17,-12.20002 -0.42625,-24.92 -2.40625,-37 -4.92,-30.06 -7.38125,-60.53 -8.78125,-91 -0.45,-9.86 -7.035,-22.06 -3.375,-32 1.91,-5.16 7.665,-9.15 11.375,-13 7.63,-7.92 14.6375,-15.0375 22.9375,-22.1875 18.18,-15.66 34.0425,-34.1925 51.8125,-50.3125 15.63,-14.18 29.01125,-30.85125 44.03125,-45.53125 45.69,-44.64 92,-88.71875 137.25,-133.96875 17.85,-17.85 35.19,-36.1 53,-54 7.1,-7.137 19.65,-17.086 22.5,-27 2.97,-10.329 -4.03875,-22.847 -7.71875,-32 -5.07,-12.574 -8.08625,-26.944 -11.90625,-40 -18.63,-63.781 -40.705,-126.143 -62.375,-189 -12.53,-36.365 -26.13125,-72.452 -38.28125,-109 C 666.3325,54.27175 662.825,30.5385 652.625,19.5625 639.745,5.7075 617.76375,1.078 599.84375,-1.25 c -2.0925,-0.271875 -4.18787,-0.3661949 -6.28125,-0.3125 z M -226,142.28125 c -1.9249,0.0176 -3.9625,0.25088 -6.15625,0.71875 -21.715,4.631 -40.673,22.0815 -57,36.0625 -18.245,15.625 -33.78125,33.20725 -48.15625,52.40625 -8.484,11.331 -16.6425,23.109 -15.8125,38 1.036,18.573 24.02975,35.026 35.96875,47 35.581,35.682 72.7535,67.6495 110.9375,100.3125 24.362,20.838 48.8045,41.25225 74.0625,60.90625 9.83,7.64 20.54,19.28 34,16.25 26.969,-6.06 54.43625,-28.0775 75.03125,-45.5625 6.111,-5.188 19.19075,-14.83725 18.59375,-23.90625 -0.405,-6.15 -4.594,-9.34425 -7.75,-14.03125 -8.49,-12.61 -18.32075,-23.9605 -27.34375,-36.0625 -34.766,-46.634 -68.64525,-94.15025 -103.65625,-140.90625 -17.591,-23.493 -35.20475,-46.773 -53.21875,-70 -8.603,-11.09063 -16.02571,-21.31098 -29.5,-21.1875 z m 427.84375,122.1875 c 1.305,8.979 9.70525,17.578 14.65625,25 12.743,19.1 25.6725,38.37275 39.3125,56.84375 4.24,5.742 10.84875,22.261 18.21875,23.75 9.83,1.984 21.68375,-5.9215 30.84375,-8.1875 28.62,-7.086 58.77875,-17.11225 87.96875,-21.40625 -1.38,-6.642 -5.32625,-21.6925 -10.65625,-26.0625 -3.4,-2.792 -10.15375,-3.58025 -14.34375,-4.78125 -11.29,-3.237 -22.62,-6.479 -34,-9.375 -44.29,-11.272 -87.81,-25.25625 -132,-35.78125 z" style="fill:#d40000;stroke:none" inkscape:connector-curvature="0"/>
    </g>
  </g>
</svg>