<?xml version="1.0" encoding="UTF-8" standalone="no"?>
<!-- Created with Inkscape (http://www.inkscape.org/) -->
<svg xmlns:inkscape="http://www.inkscape.org/namespaces/inkscape" xmlns:rdf="http://www.w3.org/1999/02/22-rdf-syntax-ns#" xmlns="http://www.w3.org/2000/svg" xmlns:cc="http://creativecommons.org/ns#" xmlns:dc="http://purl.org/dc/elements/1.1/" xmlns:sodipodi="http://sodipodi.sourceforge.net/DTD/sodipodi-0.dtd" xmlns:svg="http://www.w3.org/2000/svg" xmlns:ns1="http://sozi.baierouge.fr" xmlns:xlink="http://www.w3.org/1999/xlink" id="svg1106" sodipodi:docname="tube_sound_please.svg" viewBox="0 0 484 484" version="1.1" inkscape:version="0.48+devel r10523">
  <sodipodi:namedview id="base" fit-margin-left="0" inkscape:zoom="0.7" borderopacity="1.0" inkscape:current-layer="layer1" inkscape:cx="-83.919786" inkscape:cy="185.03123" inkscape:object-paths="true" inkscape:window-maximized="1" showgrid="false" fit-margin-right="0" inkscape:guide-bbox="true" inkscape:snap-global="false" inkscape:document-units="px" bordercolor="#666666" inkscape:window-x="0" inkscape:window-y="24" inkscape:object-nodes="true" fit-margin-bottom="0" inkscape:window-width="1680" inkscape:pageopacity="0.0" inkscape:pageshadow="2" pagecolor="#ffffff" showguides="true" inkscape:window-height="973" fit-margin-top="0"/>
  <g id="layer1" inkscape:label="Layer 1" inkscape:groupmode="layer" transform="translate(-132.06 -343.96)">
    <path id="path1087" sodipodi:nodetypes="sccsss" d="m374.1 343.96c-133.65-0.009-242.02 108.32-242.03 241.97v0.59375c0.31301 133.42 108.57 241.43 242 241.44 133.65 0.009 241.99-108.35 242-242 0.009-133.65-108.32-241.99-241.97-242z" style="color:#000000;fill:#008000" inkscape:connector-curvature="0"/>
    <path id="path2268" style="stroke-linejoin:round;opacity:0.97;stroke-width:4.1254;block-progression:tb;text-indent:0;color:#000000;stroke:#ffffff;text-transform:none;fill:#ffffff" d="m240.56 61.571-0.125 26.116c-84.434 0.8542-152.74 69.645-152.75 154.28v0.375c0.15309 65.253 40.884 121.05 98.25 143.47l-0.0937 29.79c0.0325 1.6971 1.5838 3.2189 3.2812 3.2189s3.2487-1.5218 3.2812-3.2189l0.0625-27.415c15.547 5.2728 32.215 8.1239 49.531 8.125 17.137 0.001 33.625-2.7724 49.031-7.9375v27.228c0.0326 1.6971 1.5838 3.2189 3.2812 3.2189s3.2487-1.5218 3.2812-3.2189v-29.602c34.241-13.245 62.598-38.383 80-70.312l39.5-0.28125c1.8192 0.24348 3.6604-1.3677 3.6604-3.2031s-1.8412-3.4466-3.6604-3.2031l-36.125 0.15625c9.5808-19.771 15.029-41.888 15.312-65.25l25.875 0.125 0.15625-5.375-26.062-0.125c-1.8-81.97-67.61-148.27-149.4-150.79l0.0937-26.179c0-1.1501-0.54942-3.462-3.1766-3.4016-2.6272 0.06037-3.1984 2.4727-3.1984 3.4016zm-0.1875 53.897-0.15625 59.562-42.094 0.1875c-2.1308-0.00007-4.2481 0.8841-5.7461 2.3995s-2.3576 3.6428-2.3328 5.7735c0.0247 2.1307 0.93348 4.2376 2.4662 5.7178s3.67 2.315 5.8002 2.2655l86.844-0.5c2.137 0.0351 4.2749-0.8197 5.7985-2.3185s2.4135-3.6224 2.4135-5.7596c0-2.1373-0.88984-4.2608-2.4135-5.7596-1.5236-1.4988-3.6615-2.3536-5.7985-2.3185l-38.562 0.15625 0.1875-59.25c66.504 2.5822 119.52 56.029 121.5 122.69l-33.812-0.15625v-2.875l-20.719 0.1875v10.25h20.719v-2.1875l34 0.1875c-0.28059 24.107-7.2936 46.572-19.188 65.625l-24.75 0.15625c-0.16529-0.63594-0.39607-1.2548-0.6875-1.8438-15.803-28.975-46.551-48.469-81.781-48.469-35.701 0-66.86 20.041-82.469 49.656-1.3347 2.2157-1.7125 4.9865-1.0198 7.4787 0.69275 2.4922 2.4463 4.6705 4.733 5.8796s5.0742 1.4319 7.5239 0.60127c2.4497-0.8306 4.5269-2.7028 5.6066-5.0534 12.405-23.536 37.107-39.531 65.625-39.531 28.142 0 52.408 15.657 64.969 38.688 1.729 3.1779 5.3771 5.2064 8.9889 4.9981 3.6118-0.20825 7.0026-2.6426 8.3549-5.9981l20.54-0.18c-12.196 17.114-28.42 31.072-47.469 40.375v-31.625c0.0129-0.52824-0.10629-1.0592-0.34375-1.5312-10.66-19.94-31.74-33.47-55.88-33.47-22.905 0-42.933 12.164-54.031 30.438-0.31755 0.5022-0.49271 1.0934-0.5 1.6875l-0.34375 34.688c-42.31-20.51-71.35-63.86-71.35-114.13 0-69.68 55.87-126 125.38-126.72zm-29.938 120-20.719 0.15625v10.281h20.719zm10.25 0 0.15625 10.438h20.531v-10.438zm31.125 0v10.438l20.719-0.1875v-10.25zm30.969 0v10.25h20.719v-10.25zm-124.02 0.15v10.281h20.719v-10.281zm82.469 60.25c21.504 0 40.159 12.025 49.812 29.625v33.5c-15.168 6.402-31.78 9.9375-49.312 9.9375-17.342 0-33.933-3.5102-48.969-9.7812l0.34375-36.5c10.05-16.01 27.817-26.781 48.125-26.781z" sodipodi:nodetypes="ccccccsccsccsccccscccccccczccccsssccsssccccccccccccccscssscscscccccscccsccccccccccccccccccccccccccsccsccs" inkscape:connector-curvature="0" transform="translate(132.06 343.96)"/>
    <path id="path1179" sodipodi:nodetypes="sccsss" inkscape:connector-curvature="0" style="color:#000000;stroke:#ffffff;stroke-width:15.119;fill:none" d="m374.09 362.28c-123.53-0.01-223.69 100.12-223.7 223.65v0.54878c0.28931 123.32 100.35 223.15 223.67 223.15 123.53 0.009 223.67-100.14 223.67-223.67 0.009-123.53-100.11-223.67-223.65-223.67z"/>
  </g>
  <metadata>
    <rdf:RDF>
      <cc:Work>
        <dc:format>image/svg+xml</dc:format>
        <dc:type rdf:resource="http://purl.org/dc/dcmitype/StillImage"/>
        <cc:license rdf:resource="http://creativecommons.org/licenses/publicdomain/"/>
        <dc:publisher>
          <cc:Agent rdf:about="http://openclipart.org/">
            <dc:title>Openclipart</dc:title>
          </cc:Agent>
        </dc:publisher>
        <dc:title>Tube only, please!</dc:title>
        <dc:date>2011-08-02T09:50:39</dc:date>
        <dc:description>Joke sign for apologist of warm tube sound.</dc:description>
        <dc:source>https://openclipart.org/detail/153253/tube-only-please!-by-boobaloo</dc:source>
        <dc:creator>
          <cc:Agent>
            <dc:title>boobaloo</dc:title>
          </cc:Agent>
        </dc:creator>
        <dc:subject>
          <rdf:Bag>
            <rdf:li>amplification</rdf:li>
            <rdf:li>audio</rdf:li>
            <rdf:li>circuit</rdf:li>
            <rdf:li>circuit diagram</rdf:li>
            <rdf:li>electronics</rdf:li>
            <rdf:li>lamp</rdf:li>
            <rdf:li>pictogram</rdf:li>
            <rdf:li>radio</rdf:li>
            <rdf:li>symbol</rdf:li>
            <rdf:li>triode</rdf:li>
            <rdf:li>tube</rdf:li>
          </rdf:Bag>
        </dc:subject>
      </cc:Work>
      <cc:License rdf:about="http://creativecommons.org/licenses/publicdomain/">
        <cc:permits rdf:resource="http://creativecommons.org/ns#Reproduction"/>
        <cc:permits rdf:resource="http://creativecommons.org/ns#Distribution"/>
        <cc:permits rdf:resource="http://creativecommons.org/ns#DerivativeWorks"/>
      </cc:License>
    </rdf:RDF>
  </metadata>
</svg>